inFAMOUS: Second Son - Gameplay HD 

Youtube HD

MEDIAINFO:


General
Complete name                            : C:UsersLPKDesktopDontinFAMOUS Second Son (PS4).mp4
Format                                   : MPEG-4
Format profile                           : Base Media / Version 2
Codec ID                                 : mp42
File size                                : 84.7 MiB
Duration                                 : 2mn 8s
Overall bit rate mode                    : Variable
Overall bit rate                         : 5 536 Kbps
Encoded date                             : UTC 2013-02-19 20:15:05
Tagged date                              : UTC 2013-02-19 20:15:05


Video
ID                                       : 1
Format                                   : AVC
Format/Info                              : Advanced Video Codec
Format profile                           : High@L4.0
Format settings, CABAC                   : Yes
Format settings, ReFrames                : 1 frame
Codec ID                                 : avc1
Codec ID/Info                            : Advanced Video Coding
Duration                                 : 2mn 8s
Bit rate                                 : 5 342 Kbps
Maximum bit rate                         : 12.7 Mbps
Width                                    : 1 920 pixels
Height                                   : 1 080 pixels
Display aspect ratio                     : 16:9
Frame rate mode                          : Constant
Frame rate                               : 29.970 fps
Color space                              : YUV
Chroma subsampling                       : 4:2:0
Bit depth                                : 8 bits
Scan type                                : Progressive
Bits/(Pixel*Frame)                       : 0.086
Stream size                              : 81.7 MiB (96%)
Tagged date                              : UTC 2013-02-19 20:15:11

Audio
ID                                       : 2
Format                                   : AAC
Format/Info                              : Advanced Audio Codec
Format profile                           : LC
Codec ID                                 : 40
Duration                                 : 2mn 8s
Bit rate mode                            : Variable
Bit rate                                 : 192 Kbps
Maximum bit rate                         : 201 Kbps
Channel(s)                               : 2 channels
Channel positions                        : Front: L R
Sampling rate                            : 44.1 KHz
Compression mode                         : Lossy
Stream size                              : 2.94 MiB (3%)
Title                                    : IsoMedia File Produced by Google, 5-11-2011
Encoded date                             : UTC 2013-02-19 20:15:09
Tagged date                              : UTC 2013-02-19 20:15:11
